<?xml version="1.0" standalone="no"?>
<!DOCTYPE svg PUBLIC "-//W3C//DTD SVG 20010904//EN"
 "http://www.w3.org/TR/2001/REC-SVG-20010904/DTD/svg10.dtd">
<svg version="1.0" xmlns="http://www.w3.org/2000/svg"
 width="720.000000pt" height="720.000000pt" viewBox="0 0 720.000000 720.000000"
 preserveAspectRatio="xMidYMid meet">
<metadata>
Created by potrace 1.11, written by Peter Selinger 2001-2013
</metadata>
<g transform="translate(0.000000,720.000000) scale(0.100000,-0.100000)"
fill="#000000" stroke="none">
<path d="M3193 6454 c-711 -86 -1373 -424 -1850 -946 -429 -468 -694 -1049
-768 -1683 -20 -169 -20 -501 0 -670 43 -368 143 -697 312 -1028 453 -886
1319 -1485 2318 -1602 169 -20 501 -20 670 0 368 43 697 143 1028 312 886 453
1485 1319 1602 2318 20 169 20 501 0 670 -43 368 -143 697 -312 1028 -453 886
-1319 1485 -2318 1602 -161 19 -525 18 -682 -1z m501 -194 c348 -22 641 -91
946 -222 638 -273 1175 -810 1448 -1448 371 -865 282 -1853 -235 -2634 -293
-442 -731 -808 -1213 -1014 -865 -371 -1853 -282 -2634 235 -442 293 -808 731
-1014 1213 -371 865 -282 1853 235 2634 397 598 1039 1036 1730 1180 183 38
273 48 553 64 14 1 96 -3 184 -8z"/>
<path d="M3450 3821 c-96 -31 -185 -115 -219 -207 -28 -73 -28 -175 0 -248 25
-69 96 -149 163 -184 46 -24 62 -27 151 -27 89 0 105 3 151 27 198 104 246
372 97 538 -67 75 -128 103 -233 106 -47 2 -96 0 -110 -5z"/>
</g>
</svg>
